<?xml version="1.0" standalone="no"?>
<!DOCTYPE svg PUBLIC "-//W3C//DTD SVG 20010904//EN"
 "http://www.w3.org/TR/2001/REC-SVG-20010904/DTD/svg10.dtd">
<svg version="1.0" xmlns="http://www.w3.org/2000/svg"
 width="236.000000pt" height="238.000000pt" viewBox="0 0 236.000000 238.000000"
 preserveAspectRatio="xMidYMid meet">
<metadata>
Created by potrace 1.16, written by Peter Selinger 2001-2019
</metadata>
<g transform="translate(0.000000,238.000000) scale(0.100000,-0.100000)"
fill="#000000" stroke="none">
<path d="M1010 2356 c-92 -49 -187 -163 -252 -307 -32 -68 -44 -79 -65 -58
-12 12 -24 -14 -54 -126 -38 -143 -14 -261 71 -346 l42 -42 -26 -52 c-32 -66
-61 -77 -80 -32 -7 18 -50 145 -95 282 -45 138 -86 254 -90 258 -4 4 -46 10
-92 13 -108 8 -177 -16 -250 -86 -55 -53 -56 -56 -19 -155 10 -27 40 -115 65
-195 26 -80 57 -173 70 -208 27 -71 27 -70 -54 -92 l-44 -11 7 -72 c3 -40 8
-86 12 -104 5 -28 2 -33 -23 -47 -24 -12 -39 -38 -82 -139 -29 -69 -51 -133
-49 -142 2 -12 40 -34 116 -66 62 -26 115 -47 118 -47 5 0 133 -115 227 -206
42 -39 91 -58 147 -55 51 3 67 -6 165 -88 22 -19 45 -37 50 -41 177 -127 297
-192 353 -192 36 0 115 34 194 82 41 25 150 100 158 108 3 3 27 21 53 40 26
19 64 47 84 63 28 21 47 27 85 27 59 0 105 18 145 56 162 155 226 208 270 225
126 46 188 77 191 94 2 9 -20 73 -49 142 -43 101 -58 127 -82 139 -28 15 -29
18 -22 62 17 114 21 153 16 156 -3 2 -32 11 -64 20 -47 14 -57 20 -52 33 3 9
46 138 96 285 70 210 87 272 79 287 -21 40 -92 89 -160 111 -55 18 -84 21
-141 17 -39 -3 -75 -9 -79 -14 -5 -4 -36 -91 -70 -193 -34 -102 -66 -189 -71
-195 -5 -5 -9 6 -9 29 0 20 -5 46 -10 57 -8 14 -6 32 5 67 25 70 25 166 2 235
-21 62 -20 62 -47 47 -17 -9 -23 -4 -46 31 -57 91 -168 186 -276 236 l-46 22
-13 -32 c-29 -73 -34 -73 -68 -2 -17 36 -31 72 -31 80 0 18 -21 65 -29 65 -3
0 -19 -27 -34 -60 -16 -33 -32 -62 -37 -65 -15 -9 -33 26 -38 75 -2 28 -10 50
-16 50 -6 -1 -31 -12 -56 -24z m13 -183 c7 -43 55 -115 107 -160 l36 -32 -4
35 c-5 39 4 84 17 84 5 0 42 -32 82 -71 40 -40 74 -68 76 -63 2 5 12 27 21 49
l18 39 38 -68 c40 -71 45 -95 32 -135 -7 -19 -5 -22 7 -15 28 17 70 75 77 107
l6 32 17 -32 c10 -18 13 -33 9 -33 -5 0 -12 -13 -15 -29 -8 -37 -32 -61 -61
-61 -13 0 -38 -3 -56 -6 l-32 -7 23 41 c22 37 23 43 10 79 -8 21 -20 47 -28
58 -13 18 -14 15 -8 -27 6 -39 3 -52 -15 -77 -25 -36 -40 -40 -40 -11 0 11 -6
35 -14 53 -16 36 -93 123 -102 114 -3 -3 6 -28 20 -56 32 -62 34 -121 5 -167
-23 -38 -18 -41 41 -24 28 8 37 7 46 -5 8 -10 29 -15 68 -15 73 0 88 -9 111
-62 10 -24 34 -58 54 -76 l36 -32 -44 6 c-43 7 -43 7 -31 -17 7 -13 29 -44 49
-68 l36 -44 -35 8 c-19 4 -48 14 -64 22 -28 15 -29 14 -23 -9 5 -18 -3 -13
-37 24 -27 29 -56 77 -77 128 -18 44 -39 85 -45 91 -9 7 -25 4 -53 -10 -22
-12 -42 -21 -45 -21 -2 0 -21 24 -42 53 -34 45 -39 49 -42 30 -5 -31 -14 -29
-51 9 l-31 32 -6 -32 c-8 -40 -21 -40 -70 1 -54 45 -101 77 -113 77 -21 0 21
-122 58 -164 15 -18 13 -18 -72 -15 -63 3 -87 1 -87 -8 0 -23 63 -84 102 -100
47 -19 51 -37 6 -28 -91 20 -136 74 -152 182 -6 43 4 47 44 18 20 -15 48 -25
67 -25 38 0 43 18 13 45 -41 37 -43 131 -4 207 l16 32 13 -38 c7 -20 21 -46
30 -56 18 -19 82 -46 91 -37 2 2 -5 26 -18 53 -28 64 -31 183 -5 232 23 42 33
41 40 -5z m187 -988 c0 -68 -3 -85 -15 -85 -12 0 -13 -12 -8 -64 3 -34 2 -70
-3 -79 -8 -14 -14 -13 -49 11 -78 52 -165 123 -175 143 -11 20 -1 26 16 10 5
-5 19 -12 32 -16 32 -9 28 11 -12 75 -33 52 -40 78 -14 52 18 -18 57 -15 134
12 38 14 75 25 82 25 9 1 12 -22 12 -84z"/>
</g>
</svg>
